<svg width="285" height="285" viewBox="0 0 285 285" fill="none" xmlns="http://www.w3.org/2000/svg">
<path d="M254.665 64.712C252.774 61.6672 250.694 58.7448 248.435 55.9625C229.989 33.2822 205.873 23.6834 178.325 17.2538C149.87 10.6133 116.554 8.54995 89.2335 20.5199C82.8039 23.3699 76.6935 27.1319 71.8599 32.2619C53.58 51.5906 47.31 83.9609 26.9553 109.548C6.60062 135.136 -3.32878 167.01 14.9454 197.266C22.6803 210.079 32.5413 220.636 44.2092 229.927C58.5732 241.327 70.965 256.751 87.5691 265.671C105.017 275.042 128.256 278.308 147.567 274.016C169.598 269.12 182.52 249.649 199.335 236.396C212.593 225.931 228.456 219.079 241.446 208.284C261.351 191.754 276.444 165.157 273.936 138.806C271.474 113.225 268.305 86.6399 254.665 64.712Z" fill="#BF9B6F"/>
<path opacity="0.7" d="M254.665 64.712C252.774 61.6672 250.694 58.7448 248.435 55.9625C229.989 33.2822 205.873 23.6834 178.325 17.2538C149.87 10.6133 116.554 8.54995 89.2335 20.5199C82.8039 23.3699 76.6935 27.1319 71.8599 32.2619C53.58 51.5906 47.31 83.9609 26.9553 109.548C6.60062 135.136 -3.32878 167.01 14.9454 197.266C22.6803 210.079 32.5413 220.636 44.2092 229.927C58.5732 241.327 70.965 256.751 87.5691 265.671C105.017 275.042 128.256 278.308 147.567 274.016C169.598 269.12 182.52 249.649 199.335 236.396C212.593 225.931 228.456 219.079 241.446 208.284C261.351 191.754 276.444 165.157 273.936 138.806C271.474 113.225 268.305 86.6399 254.665 64.712Z" fill="white"/>
<path d="M20.976 249.631H266.76" stroke="#263238" stroke-linecap="round" stroke-linejoin="round"/>
<path d="M7.86597 249.632H16.416" stroke="#263238" stroke-linecap="round" stroke-linejoin="round"/>
<path opacity="0.2" d="M243.658 28.329C243.112 28.3303 242.581 28.5026 242.138 28.8215C241.695 29.1405 241.364 29.5902 241.19 30.1074H113.384C113.186 29.5198 112.785 29.0219 112.253 28.7025C111.721 28.3831 111.093 28.263 110.481 28.3637C109.869 28.4643 109.313 28.7792 108.911 29.252C108.51 29.7249 108.29 30.325 108.29 30.9453C108.29 31.5656 108.51 32.1657 108.911 32.6385C109.313 33.1114 109.869 33.4262 110.481 33.5269C111.093 33.6276 111.721 33.5075 112.253 33.1881C112.785 32.8687 113.186 32.3708 113.384 31.7832H241.19C241.345 32.2373 241.622 32.64 241.991 32.9468C242.36 33.2537 242.807 33.4529 243.281 33.5225C243.756 33.5922 244.241 33.5296 244.683 33.3417C245.124 33.1538 245.506 32.8478 245.785 32.4573C246.064 32.0668 246.229 31.607 246.264 31.1284C246.299 30.6497 246.201 30.1708 245.981 29.7441C245.761 29.3175 245.428 28.9597 245.018 28.71C244.609 28.4604 244.138 28.3285 243.658 28.329Z" fill="black"/>
<g opacity="0.2">
<path d="M143.64 32.2562C145.464 76.5623 147.06 121.296 148.964 165.448L148.77 174.101C148.77 174.101 140.579 174.101 136.27 174.528C131.961 174.956 125.275 174.961 120.532 174.961C115.79 174.961 113.202 173.251 113.202 173.251L113.516 165.442C114.467 121.319 115.499 76.5794 116.177 32.2676" stroke="black" stroke-linejoin="round"/>
<path d="M123.188 158.124L123.166 163.339" stroke="black" stroke-linejoin="round"/>
<path d="M123.633 56.4698L123.211 153.49" stroke="black" stroke-linejoin="round"/>
<path d="M123.747 31.2701L123.65 53.5743" stroke="black" stroke-linejoin="round"/>
<path d="M131.094 82.2395L130.12 146.832" stroke="black" stroke-linejoin="round"/>
<path d="M131.858 31.8516L131.157 78.1983" stroke="black" stroke-linejoin="round"/>
<path d="M137.957 100.2L138.225 160.153" stroke="black" stroke-linejoin="round"/>
<path d="M137.763 57.627L137.934 95.2812" stroke="black" stroke-linejoin="round"/>
<path d="M137.649 32.433L137.741 52.9929" stroke="black" stroke-linejoin="round"/>
</g>
<g opacity="0.2">
<path d="M209.76 32.2562C207.982 79.1672 205.77 126.54 204.06 173.223C207.098 173.683 210.16 173.964 213.231 174.067H231.54C234.384 174.005 237.218 173.713 240.016 173.194C239.189 126.557 238.636 79.1444 237.166 32.2562" stroke="black" stroke-linejoin="round"/>
<path d="M230.155 158.124L230.177 163.339" stroke="black" stroke-linejoin="round"/>
<path d="M229.71 56.4698L230.137 153.49" stroke="black" stroke-linejoin="round"/>
<path d="M229.602 31.2701L229.699 53.5743" stroke="black" stroke-linejoin="round"/>
<path d="M222.249 82.2395L223.229 146.832" stroke="black" stroke-linejoin="round"/>
<path d="M221.491 31.8516L222.192 78.1983" stroke="black" stroke-linejoin="round"/>
<path d="M215.392 100.2L215.118 160.153" stroke="black" stroke-linejoin="round"/>
<path d="M215.585 57.627L215.414 95.2812" stroke="black" stroke-linejoin="round"/>
<path d="M215.699 32.433L215.603 52.9929" stroke="black" stroke-linejoin="round"/>
</g>
<g opacity="0.2">
<path d="M144.427 44.8475H157.286V59.8499H145.282" stroke="black" stroke-linejoin="round"/>
<path d="M172.978 44.8817H159.532V59.9354H172.978V44.8817Z" stroke="black" stroke-linejoin="round"/>
</g>
<g opacity="0.2">
<path d="M209.093 44.8475H196.228V59.8499H208.238" stroke="black" stroke-linejoin="round"/>
<path d="M180.542 59.9354H193.988V44.8817H180.542V59.9354Z" stroke="black" stroke-linejoin="round"/>
</g>
<path opacity="0.2" d="M146.547 113.037H173.32V68.0466H145.373" stroke="black" stroke-linejoin="round"/>
<path opacity="0.2" d="M207.736 67.6647H180.376V113.037H205.679" stroke="black" stroke-linejoin="round"/>
<path opacity="0.2" d="M147.43 123.713H173.32V168.937H149.391" stroke="black" stroke-linejoin="round"/>
<path opacity="0.2" d="M205.975 123.331H180.376V169.358H203.712" stroke="black" stroke-linejoin="round"/>
<path opacity="0.2" d="M149.272 172.231H204.071" stroke="black" stroke-linejoin="round"/>
<path opacity="0.2" d="M144.318 39.6378H209.065" stroke="black" stroke-linejoin="round"/>
<path opacity="0.2" d="M176.842 39.9456V171.61" stroke="black" stroke-linejoin="round"/>
<path opacity="0.2" d="M145.139 64.5696H208.118" stroke="black" stroke-linejoin="round"/>
<path d="M254.79 133.038C254.79 133.038 248.104 129.327 247.608 137.746C247.112 146.165 245.898 227.886 245.898 227.886" stroke="#263238" stroke-miterlimit="10" stroke-linecap="round"/>
<path d="M244.125 138.51C244.125 138.51 249.58 177.658 247.101 227.168" stroke="#263238" stroke-miterlimit="10" stroke-linecap="round"/>
<path d="M249.483 134.737C249.483 134.737 246.924 136.373 245.493 134.497C244.063 132.622 246.479 129.191 244.353 127.72C242.227 126.249 238.494 128.489 238.494 128.489C238.494 128.489 241.344 129.333 241.264 130.889C241.184 132.445 239.793 133.044 239.611 132.36C239.428 131.676 238.066 128.244 235.741 129.669C235.072 130.065 234.49 130.593 234.03 131.22C233.571 131.847 233.243 132.56 233.067 133.317C233.067 133.317 238.471 132.747 238.796 134.771C239.121 136.794 236.578 134.417 234.35 134.286C232.121 134.155 230.092 134.48 230.234 135.831C230.285 137.025 230.214 138.22 230.023 139.399C231.241 138.385 232.782 137.841 234.367 137.866C236.818 138.008 236.727 139.576 234.498 139.439C232.269 139.302 230.354 141.428 230.354 141.428C230.354 141.428 232.383 144.905 234.965 146.621C237.547 148.337 238.482 147.721 238.779 146.399C239.075 145.076 238.391 141.679 239.947 141.77C241.503 141.862 237.365 147.659 239.377 148.001C241.389 148.343 242.968 147.761 243.493 146.45L244.017 145.145C244.017 145.145 243.322 141.725 243.624 140.425C243.926 139.126 244.291 140.459 244.644 142.05C244.997 143.64 245.214 147.448 245.904 147.265C246.593 147.083 248.754 144.301 249.272 143.218C249.791 142.135 246.422 138.795 246.422 138.128C246.422 137.461 249.067 138.732 249.472 139.428C249.768 139.951 250.037 140.489 250.276 141.041C250.276 141.041 251.9 140.015 251.86 136.886C251.82 133.756 249.483 134.737 249.483 134.737Z" fill="#BF9B6F"/>
<path opacity="0.3" d="M249.483 134.737C249.483 134.737 246.924 136.373 245.493 134.497C244.063 132.622 246.479 129.191 244.353 127.72C242.227 126.249 238.494 128.489 238.494 128.489C238.494 128.489 241.344 129.333 241.264 130.889C241.184 132.445 239.793 133.044 239.611 132.36C239.428 131.676 238.066 128.244 235.741 129.669C235.072 130.065 234.49 130.593 234.03 131.22C233.571 131.847 233.243 132.56 233.067 133.317C233.067 133.317 238.471 132.747 238.796 134.771C239.121 136.794 236.578 134.417 234.35 134.286C232.121 134.155 230.092 134.48 230.234 135.831C230.285 137.025 230.214 138.22 230.023 139.399C231.241 138.385 232.782 137.841 234.367 137.866C236.818 138.008 236.727 139.576 234.498 139.439C232.269 139.302 230.354 141.428 230.354 141.428C230.354 141.428 232.383 144.905 234.965 146.621C237.547 148.337 238.482 147.721 238.779 146.399C239.075 145.076 238.391 141.679 239.947 141.77C241.503 141.862 237.365 147.659 239.377 148.001C241.389 148.343 242.968 147.761 243.493 146.45L244.017 145.145C244.017 145.145 243.322 141.725 243.624 140.425C243.926 139.126 244.291 140.459 244.644 142.05C244.997 143.64 245.214 147.448 245.904 147.265C246.593 147.083 248.754 144.301 249.272 143.218C249.791 142.135 246.422 138.795 246.422 138.128C246.422 137.461 249.067 138.732 249.472 139.428C249.768 139.951 250.037 140.489 250.276 141.041C250.276 141.041 251.9 140.015 251.86 136.886C251.82 133.756 249.483 134.737 249.483 134.737Z" fill="#263238"/>
<path d="M236.55 142.078C238.214 140.021 240.671 137.233 242.734 135.899" stroke="#263238" stroke-miterlimit="10" stroke-linecap="round"/>
<path d="M234.589 144.592C234.589 144.592 235.017 144.022 235.729 143.104" stroke="#263238" stroke-miterlimit="10" stroke-linecap="round"/>
<path d="M243.795 136.412C243.795 136.412 246.268 139.912 246.724 143.515" stroke="#263238" stroke-miterlimit="10" stroke-linecap="round"/>
<path d="M240.985 138.51C240.985 138.51 241.68 138.105 241.418 142.563" stroke="#263238" stroke-miterlimit="10" stroke-linecap="round"/>
<path d="M242.82 134.338C242.82 134.338 244.234 133.084 243.487 130.576" stroke="#263238" stroke-miterlimit="10" stroke-linecap="round"/>
<path d="M240.882 136.464L239.873 134.617" stroke="#263238" stroke-miterlimit="10" stroke-linecap="round"/>
<path d="M238.756 138.35C238.756 138.35 235.547 135.922 233.54 135.808" stroke="#263238" stroke-miterlimit="10" stroke-linecap="round"/>
<path d="M258.592 128.13C258.592 128.13 258.489 131.807 255.622 131.984C252.755 132.16 250.977 127.378 248.041 128.529C245.106 129.681 244.821 134.925 244.821 134.925C244.821 134.925 247.608 132.645 249.107 133.785C250.606 134.925 250.247 136.72 249.455 136.441C248.663 136.162 244.279 135.181 244.125 138.482C244.068 139.415 244.2 140.351 244.514 141.233C244.827 142.114 245.316 142.923 245.949 143.612C245.949 143.612 249.056 137.815 251.313 138.869C253.57 139.924 249.449 140.847 247.796 142.99C246.143 145.133 245.089 147.385 246.542 148.166C247.768 148.928 248.914 149.812 249.962 150.805C249.778 148.896 250.281 146.984 251.381 145.413C253.2 143.059 254.699 144.216 253.046 146.359C251.393 148.502 252.219 151.859 252.219 151.859C252.219 151.859 257.081 152.196 260.564 150.782C264.047 149.369 264.058 148.018 262.941 146.792C261.824 145.567 257.948 143.942 259.105 142.472C260.262 141.001 263.232 149.066 264.936 147.305C266.64 145.544 267.148 143.549 266.19 142.13L265.244 140.79C265.244 140.79 261.368 139.171 260.251 137.969C259.133 136.766 260.747 137.324 262.576 138.054C264.406 138.784 268.373 141.161 268.658 140.334C268.943 139.508 267.638 135.455 266.897 134.201C266.156 132.947 260.519 134.058 259.874 133.568C259.23 133.078 262.286 131.328 263.255 131.391C263.979 131.454 264.7 131.555 265.415 131.693C265.415 131.693 265.5 129.367 262.337 127.27C259.173 125.172 258.592 128.13 258.592 128.13Z" fill="#BF9B6F"/>
<path opacity="0.2" d="M258.592 128.13C258.592 128.13 258.489 131.807 255.622 131.984C252.755 132.16 250.977 127.378 248.041 128.529C245.106 129.681 244.821 134.925 244.821 134.925C244.821 134.925 247.608 132.645 249.107 133.785C250.606 134.925 250.247 136.72 249.455 136.441C248.663 136.162 244.279 135.181 244.125 138.482C244.068 139.415 244.2 140.351 244.514 141.233C244.827 142.114 245.316 142.923 245.949 143.612C245.949 143.612 249.056 137.815 251.313 138.869C253.57 139.924 249.449 140.847 247.796 142.99C246.143 145.133 245.089 147.385 246.542 148.166C247.768 148.928 248.914 149.812 249.962 150.805C249.778 148.896 250.281 146.984 251.381 145.413C253.2 143.059 254.699 144.216 253.046 146.359C251.393 148.502 252.219 151.859 252.219 151.859C252.219 151.859 257.081 152.196 260.564 150.782C264.047 149.369 264.058 148.018 262.941 146.792C261.824 145.567 257.948 143.942 259.105 142.472C260.262 141.001 263.232 149.066 264.936 147.305C266.64 145.544 267.148 143.549 266.19 142.13L265.244 140.79C265.244 140.79 261.368 139.171 260.251 137.969C259.133 136.766 260.747 137.324 262.576 138.054C264.406 138.784 268.373 141.161 268.658 140.334C268.943 139.508 267.638 135.455 266.897 134.201C266.156 132.947 260.519 134.058 259.874 133.568C259.23 133.078 262.286 131.328 263.255 131.391C263.979 131.454 264.7 131.555 265.415 131.693C265.415 131.693 265.5 129.367 262.337 127.27C259.173 125.172 258.592 128.13 258.592 128.13Z" fill="#263238"/>
<path d="M257.116 146.114C256.187 143.041 255.069 138.704 255.143 135.711" stroke="#263238" stroke-miterlimit="10" stroke-linecap="round"/>
<path d="M258.307 149.756C258.307 149.756 258.005 148.924 257.583 147.624" stroke="#263238" stroke-miterlimit="10" stroke-linecap="round"/>
<path d="M256.397 134.97C256.397 134.97 261.59 134.873 265.517 136.874" stroke="#263238" stroke-miterlimit="10" stroke-linecap="round"/>
<path d="M256.557 139.188C256.557 139.188 256.625 138.219 260.906 141.52" stroke="#263238" stroke-miterlimit="10" stroke-linecap="round"/>
<path d="M253.65 134.554C253.65 134.554 253.354 132.274 250.338 131.322" stroke="#263238" stroke-miterlimit="10" stroke-linecap="round"/>
<path d="M254.465 137.917L251.923 137.666" stroke="#263238" stroke-miterlimit="10" stroke-linecap="round"/>
<path d="M254.904 141.36C254.904 141.36 250.287 142.922 248.799 144.848" stroke="#263238" stroke-miterlimit="10" stroke-linecap="round"/>
<path d="M227.795 152.595C227.795 152.595 243.755 165.579 242.153 226.649" stroke="#263238" stroke-miterlimit="10" stroke-linecap="round"/>
<path d="M245.801 150.047C245.801 150.047 245.334 154.276 242.011 154.213C238.687 154.151 237.086 148.462 233.586 149.517C230.086 150.571 229.265 156.59 229.265 156.59C229.265 156.59 232.685 154.208 234.321 155.684C235.957 157.16 235.376 159.178 234.469 158.779C233.563 158.38 228.616 156.841 228.131 160.632C227.972 161.709 228.033 162.808 228.311 163.862C228.589 164.915 229.079 165.901 229.75 166.759C229.75 166.759 233.877 160.358 236.385 161.794C238.893 163.231 234.042 163.898 231.939 166.212C229.835 168.526 228.399 171.034 229.995 172.066C231.341 173.06 232.583 174.188 233.7 175.435C233.7 175.435 233.535 171.901 235.855 169.353C238.174 166.805 239.793 168.281 237.684 170.595C235.575 172.909 236.208 176.865 236.208 176.865C236.208 176.865 241.788 177.709 245.938 176.404C250.087 175.098 250.236 173.554 249.056 172.049C247.876 170.544 243.561 168.315 245.037 166.696C246.514 165.078 249.181 174.676 251.307 172.83C253.433 170.983 254.22 168.72 253.251 167.01L252.282 165.3C252.282 165.3 247.95 163.02 246.81 161.521C245.67 160.022 247.443 160.831 249.483 161.84C251.524 162.849 255.884 165.973 256.283 165.066C256.682 164.16 255.571 159.366 254.836 157.822C254.1 156.277 247.483 157.058 246.787 156.425C246.092 155.792 249.78 154.071 250.897 154.236C251.727 154.383 252.549 154.574 253.359 154.806C253.359 154.806 253.678 152.127 250.224 149.414C246.77 146.701 245.801 150.047 245.801 150.047Z" fill="#BF9B6F"/>
<path opacity="0.3" d="M245.801 150.047C245.801 150.047 245.334 154.276 242.011 154.213C238.687 154.151 237.086 148.462 233.586 149.517C230.086 150.571 229.265 156.59 229.265 156.59C229.265 156.59 232.685 154.208 234.321 155.684C235.957 157.16 235.376 159.178 234.469 158.779C233.563 158.38 228.616 156.841 228.131 160.632C227.972 161.709 228.033 162.808 228.311 163.862C228.589 164.915 229.079 165.901 229.75 166.759C229.75 166.759 233.877 160.358 236.385 161.794C238.893 163.231 234.042 163.898 231.939 166.212C229.835 168.526 228.399 171.034 229.995 172.066C231.341 173.06 232.583 174.188 233.7 175.435C233.7 175.435 233.535 171.901 235.855 169.353C238.174 166.805 239.793 168.281 237.684 170.595C235.575 172.909 236.208 176.865 236.208 176.865C236.208 176.865 241.788 177.709 245.938 176.404C250.087 175.098 250.236 173.554 249.056 172.049C247.876 170.544 243.561 168.315 245.037 166.696C246.514 165.078 249.181 174.676 251.307 172.83C253.433 170.983 254.22 168.72 253.251 167.01L252.282 165.3C252.282 165.3 247.95 163.02 246.81 161.521C245.67 160.022 247.443 160.831 249.483 161.84C251.524 162.849 255.884 165.973 256.283 165.066C256.682 164.16 255.571 159.366 254.836 157.822C254.1 156.277 247.483 157.058 246.787 156.425C246.092 155.792 249.78 154.071 250.897 154.236C251.727 154.383 252.549 154.574 253.359 154.806C253.359 154.806 253.678 152.127 250.224 149.414C246.77 146.701 245.801 150.047 245.801 150.047Z" fill="#263238"/>
<path d="M242.398 170.658C241.617 167.01 240.739 161.88 241.11 158.46" stroke="#263238" stroke-miterlimit="10" stroke-linecap="round"/>
<path d="M243.43 174.99C243.43 174.99 243.156 173.998 242.797 172.453" stroke="#263238" stroke-miterlimit="10" stroke-linecap="round"/>
<path d="M242.62 157.73C242.62 157.73 248.617 158.112 252.955 160.791" stroke="#263238" stroke-miterlimit="10" stroke-linecap="round"/>
<path d="M242.404 162.615C242.404 162.615 242.575 161.475 247.203 165.716" stroke="#263238" stroke-miterlimit="10" stroke-linecap="round"/>
<path d="M239.48 156.989C239.48 156.989 239.354 154.339 235.963 152.948" stroke="#263238" stroke-miterlimit="10" stroke-linecap="round"/>
<path d="M240.113 160.951L237.206 160.427" stroke="#263238" stroke-miterlimit="10" stroke-linecap="round"/>
<path d="M240.301 164.93C240.301 164.93 234.823 166.298 232.925 168.384" stroke="#263238" stroke-miterlimit="10" stroke-linecap="round"/>
<path d="M245.801 191.281C245.801 191.281 245.334 195.516 242.011 195.447C238.687 195.379 237.086 189.696 233.586 190.751C230.086 191.805 229.265 197.824 229.265 197.824C229.265 197.824 232.685 195.447 234.321 196.918C235.957 198.389 235.376 200.418 234.469 200.013C233.563 199.608 228.616 198.075 228.131 201.866C227.972 202.943 228.033 204.042 228.311 205.096C228.589 206.149 229.079 207.135 229.75 207.993C229.75 207.993 233.877 201.592 236.385 203.028C238.893 204.465 234.042 205.132 231.939 207.446C229.835 209.76 228.399 212.268 229.995 213.3C231.342 214.295 232.584 215.426 233.7 216.674C233.7 216.674 233.535 213.134 235.855 210.587C238.174 208.039 239.793 209.515 237.684 211.829C235.575 214.143 236.208 218.099 236.208 218.099C236.208 218.099 241.788 218.943 245.938 217.643C250.087 216.344 250.236 214.793 249.056 213.283C247.876 211.772 243.561 209.555 245.037 207.93C246.514 206.306 249.181 215.939 251.307 214.064C253.433 212.188 254.214 209.937 253.251 208.21L252.282 206.5C252.282 206.5 247.967 204.265 246.787 202.772C245.607 201.278 247.42 202.076 249.46 203.085C251.501 204.094 255.862 207.218 256.261 206.312C256.66 205.405 255.548 200.583 254.813 199.067C254.077 197.551 247.46 198.303 246.764 197.676C246.069 197.049 249.757 195.316 250.874 195.487C251.705 195.632 252.527 195.823 253.336 196.057C253.336 196.057 253.656 193.384 250.201 190.665C246.747 187.946 245.801 191.281 245.801 191.281Z" fill="#BF9B6F"/>
<path opacity="0.3" d="M245.801 191.281C245.801 191.281 245.334 195.516 242.011 195.447C238.687 195.379 237.086 189.696 233.586 190.751C230.086 191.805 229.265 197.824 229.265 197.824C229.265 197.824 232.685 195.447 234.321 196.918C235.957 198.389 235.376 200.418 234.469 200.013C233.563 199.608 228.616 198.075 228.131 201.866C227.972 202.943 228.033 204.042 228.311 205.096C228.589 206.149 229.079 207.135 229.75 207.993C229.75 207.993 233.877 201.592 236.385 203.028C238.893 204.465 234.042 205.132 231.939 207.446C229.835 209.76 228.399 212.268 229.995 213.3C231.342 214.295 232.584 215.426 233.7 216.674C233.7 216.674 233.535 213.134 235.855 210.587C238.174 208.039 239.793 209.515 237.684 211.829C235.575 214.143 236.208 218.099 236.208 218.099C236.208 218.099 241.788 218.943 245.938 217.643C250.087 216.344 250.236 214.793 249.056 213.283C247.876 211.772 243.561 209.555 245.037 207.93C246.514 206.306 249.181 215.939 251.307 214.064C253.433 212.188 254.214 209.937 253.251 208.21L252.282 206.5C252.282 206.5 247.967 204.265 246.787 202.772C245.607 201.278 247.42 202.076 249.46 203.085C251.501 204.094 255.862 207.218 256.261 206.312C256.66 205.405 255.548 200.583 254.813 199.067C254.077 197.551 247.46 198.303 246.764 197.676C246.069 197.049 249.757 195.316 250.874 195.487C251.705 195.632 252.527 195.823 253.336 196.057C253.336 196.057 253.656 193.384 250.201 190.665C246.747 187.946 245.801 191.281 245.801 191.281Z" fill="#263238"/>
<path d="M242.398 211.892C241.617 208.261 240.739 203.119 241.099 199.699" stroke="#263238" stroke-miterlimit="10" stroke-linecap="round"/>
<path d="M243.43 216.212C243.43 216.212 243.156 215.221 242.797 213.682" stroke="#263238" stroke-miterlimit="10" stroke-linecap="round"/>
<path d="M242.62 198.964C242.62 198.964 248.617 199.346 252.955 202.025" stroke="#263238" stroke-miterlimit="10" stroke-linecap="round"/>
<path d="M242.404 203.849C242.404 203.849 242.575 202.738 247.203 206.95" stroke="#263238" stroke-miterlimit="10" stroke-linecap="round"/>
<path d="M239.48 198.229C239.48 198.229 239.354 195.573 235.963 194.182" stroke="#263238" stroke-miterlimit="10" stroke-linecap="round"/>
<path d="M240.113 202.185L237.206 201.66" stroke="#263238" stroke-miterlimit="10" stroke-linecap="round"/>
<path d="M240.301 206.169C240.301 206.169 234.823 207.531 232.925 209.617" stroke="#263238" stroke-miterlimit="10" stroke-linecap="round"/>
<path d="M233.489 182.052C233.489 182.052 242.894 216.252 243.886 226.9L241.902 164.228" stroke="#263238" stroke-miterlimit="10" stroke-linecap="round"/>
<path d="M256.261 176.854C243.886 174.625 243.886 226.9 243.886 226.9" stroke="#263238" stroke-miterlimit="10" stroke-linecap="round"/>
<path d="M245.368 226.649C245.368 226.649 238.192 147.419 258.985 147.419" stroke="#263238" stroke-miterlimit="10" stroke-linecap="round"/>
<path d="M251.547 175.355C249.837 173.451 246.263 173.451 244.137 178.313C242.011 183.175 243.926 182.303 243.926 182.303C243.926 182.303 247.916 181.038 250.475 180.194C253.034 179.35 256.392 177.236 256.603 178.484C256.813 179.732 254.893 181.021 252.613 181.442C250.333 181.864 244.159 183.557 244.792 184.822C245.425 186.088 246.907 189.895 246.907 189.895C248.711 188.363 250.615 186.952 252.607 185.672C255.354 183.962 257.047 184.612 255.565 186.515C254.083 188.419 249.865 190.505 250.703 193.065C251.541 195.624 256.62 198.765 256.62 198.765C256.62 198.765 257.258 193.481 258.734 191.794C260.211 190.106 260.216 192.004 259.795 194.963C259.581 196.221 259.438 197.49 259.367 198.765L265.289 200.879C266.255 199.405 267.313 197.995 268.459 196.656L269.513 195.595C269.513 195.595 264.862 191.605 264.651 189.046C264.44 186.487 267.826 189.046 268.88 189.468C269.935 189.89 271.628 192.848 271.628 192.848C271.628 192.848 272.682 187.986 272.893 186.299L273.104 184.589C273.104 184.589 268.669 182.879 266.977 182.879C265.284 182.879 264.44 184.144 264.44 182.451C264.44 180.758 266.15 179.704 268.037 179.92C269.757 180.208 271.451 180.631 273.104 181.186C273.104 181.186 274.375 180.131 273.953 176.956C273.532 173.782 272.471 173.787 269.935 174.637C267.398 175.486 265.711 177.384 263.807 177.384C261.904 177.384 262.964 175.058 264.229 174.426C265.495 173.793 268.669 172.522 269.302 172.311C269.935 172.1 265.922 169.142 263.807 168.72C261.693 168.298 258.957 169.786 259.156 171.889C259.578 176.409 253.234 177.27 251.547 175.355Z" fill="#BF9B6F"/>
<path d="M265.147 197.112C265.21 197.75 265.255 198.388 265.284 199.021" stroke="#263238" stroke-miterlimit="10" stroke-linecap="round"/>
<path d="M260.906 181.944C262.768 186.134 264.108 190.537 264.896 195.054" stroke="#263238" stroke-miterlimit="10" stroke-linecap="round"/>
<path d="M260.142 180.245C259.093 177.965 258.307 176.62 258.307 176.62C259.461 176.076 260.42 175.191 261.054 174.084C261.55 173.09 262.275 172.229 263.169 171.57" stroke="#263238" stroke-miterlimit="10" stroke-linecap="round"/>
<path d="M250.908 183.808C250.908 183.808 258.518 180.639 258.518 181.271" stroke="#263238" stroke-miterlimit="10" stroke-linecap="round"/>
<path d="M262.77 179.789C262.77 179.789 266.15 178.079 269.108 178.079" stroke="#263238" stroke-miterlimit="10" stroke-linecap="round"/>
<path d="M261.476 184.862C260.021 186.071 258.684 187.417 257.486 188.881C256.251 190.336 255.252 191.977 254.528 193.743" stroke="#263238" stroke-miterlimit="10" stroke-linecap="round"/>
<path d="M263.802 185.712C263.802 185.712 268.242 184.441 270.568 186.555" stroke="#263238" stroke-miterlimit="10" stroke-linecap="round"/>
<path d="M271.839 157.155C269.559 155.792 266.994 155.764 265.751 154.305C264.508 152.846 266.948 152.144 268.259 152.686C269.57 153.227 272.608 154.789 273.184 155.126C273.76 155.462 273.361 150.497 272.295 148.622C271.229 146.747 268.305 145.658 266.851 147.191C263.773 150.417 258.979 146.188 259.31 143.663C259.641 141.138 257.281 138.425 252.225 140.015C247.169 141.605 249.056 142.489 249.056 142.489C249.056 142.489 252.647 144.689 254.944 146.051C257.241 147.413 261.06 148.582 260.239 149.568C259.418 150.554 257.218 149.956 255.371 148.479C253.525 147.003 248.235 143.48 247.693 144.791C247.152 146.102 245.248 149.711 245.248 149.711C247.59 150.069 249.906 150.583 252.179 151.25C255.257 152.213 255.89 153.906 253.485 154.037C251.079 154.168 246.713 152.361 245.351 154.664C243.988 156.967 244.918 162.872 244.918 162.872C244.918 162.872 249.324 159.885 251.569 159.896C253.815 159.908 252.385 161.15 249.859 162.746C248.77 163.414 247.717 164.141 246.707 164.924L248.987 170.778C250.735 170.541 252.496 170.415 254.26 170.402L255.748 170.504C255.748 170.504 255.748 164.36 257.509 162.524C259.27 160.689 259.589 164.918 259.96 165.99C260.33 167.061 259.207 170.282 259.207 170.282C259.207 170.282 263.574 167.894 264.987 166.947L266.401 165.995C266.401 165.995 264.771 161.538 263.659 160.261C262.548 158.984 261.043 159.178 262.32 158.067C263.596 156.955 265.5 157.542 266.589 159.116C267.5 160.605 268.291 162.164 268.954 163.778C268.954 163.778 270.585 164.046 272.699 161.646C274.814 159.247 274.17 158.517 271.839 157.155ZM251.843 163.921C250.133 163.071 254.163 161.384 254.163 161.384C255.645 161.173 253.53 164.764 251.843 163.921ZM254.693 156.026C253.975 155.667 256.135 154.949 256.135 154.949C259.253 155.547 255.411 156.391 254.687 156.026H254.693Z" fill="#BF9B6F"/>
<path d="M251.797 168.224C251.359 168.686 250.903 169.142 250.441 169.575" stroke="#263238" stroke-miterlimit="10" stroke-linecap="round"/>
<path d="M260.49 155.074C258.547 159.22 256.102 163.112 253.211 166.662" stroke="#263238" stroke-miterlimit="10" stroke-linecap="round"/>
<path d="M261.254 153.387C262.263 151.107 262.787 149.625 262.787 149.625C263.955 150.137 265.252 150.28 266.503 150.035C267.583 149.753 268.714 149.73 269.804 149.967" stroke="#263238" stroke-miterlimit="10" stroke-linecap="round"/>
<path d="M252.51 148.77C252.51 148.77 259.891 152.441 259.413 152.851" stroke="#263238" stroke-miterlimit="10" stroke-linecap="round"/>
<path d="M263.3 155.04C263.3 155.04 266.794 156.488 268.732 158.722" stroke="#263238" stroke-miterlimit="10" stroke-linecap="round"/>
<path d="M258.637 157.423C256.768 157.105 254.873 156.969 252.977 157.018C251.067 157.041 249.173 157.364 247.363 157.975" stroke="#263238" stroke-miterlimit="10" stroke-linecap="round"/>
<path d="M259.527 159.731C259.527 159.731 263.391 162.25 263.323 165.391" stroke="#263238" stroke-miterlimit="10" stroke-linecap="round"/>
<path d="M239.001 186.436C237.148 185.341 235.102 185.296 234.099 184.156C233.096 183.016 235.068 182.446 236.122 182.85C237.177 183.255 239.617 184.56 240.078 184.823C240.54 185.085 240.221 181.095 239.366 179.584C238.511 178.074 236.157 177.202 234.982 178.444C232.509 181.043 228.655 177.635 228.918 175.594C229.18 173.554 227.287 171.376 223.218 172.659C219.148 173.941 220.664 174.648 220.664 174.648C220.664 174.648 223.554 176.421 225.406 177.498C227.259 178.575 230.326 179.533 229.664 180.348C229.003 181.163 227.23 180.656 225.748 179.47C224.266 178.285 220.003 175.446 219.57 176.501C219.136 177.555 217.603 180.462 217.603 180.462C219.489 180.749 221.353 181.162 223.183 181.699C225.657 182.474 226.165 183.836 224.227 183.945C222.289 184.053 218.777 182.594 217.683 184.446C216.589 186.299 217.335 191.053 217.335 191.053C217.335 191.053 220.881 188.647 222.688 188.659C224.494 188.67 223.343 189.668 221.32 190.973C220.443 191.507 219.598 192.091 218.789 192.723L220.624 197.431C222.03 197.241 223.446 197.141 224.865 197.129L226.062 197.214C226.062 197.214 226.062 192.267 227.481 190.802C228.901 189.337 229.151 192.728 229.453 193.595C229.756 194.461 228.849 197.049 228.849 197.049C228.849 197.049 232.36 195.122 233.5 194.364L234.64 193.601C234.64 193.601 233.324 190.01 232.435 188.984C231.545 187.958 230.326 188.111 231.352 187.217C232.378 186.322 233.911 186.795 234.772 188.06C235.503 189.261 236.14 190.517 236.675 191.816C236.675 191.816 237.986 192.027 239.691 190.106C241.395 188.186 240.853 187.53 239.001 186.436ZM222.904 191.879C221.548 191.201 224.779 189.839 224.779 189.839C225.971 189.668 224.266 192.563 222.904 191.879ZM225.184 185.529C224.614 185.244 226.324 184.663 226.324 184.663C228.872 185.147 225.777 185.82 225.196 185.529H225.184Z" fill="#BF9B6F"/>
<path d="M222.87 195.345C222.517 195.721 222.152 196.086 221.781 196.433" stroke="#263238" stroke-miterlimit="10" stroke-linecap="round"/>
<path d="M229.852 184.76C228.292 188.095 226.33 191.227 224.01 194.085" stroke="#263238" stroke-miterlimit="10" stroke-linecap="round"/>
<path d="M230.479 183.403C231.295 181.579 231.716 180.377 231.716 180.377C232.654 180.791 233.697 180.906 234.703 180.707C235.572 180.481 236.482 180.464 237.359 180.656" stroke="#263238" stroke-miterlimit="10" stroke-linecap="round"/>
<path d="M223.44 179.675C223.44 179.675 229.379 182.622 228.992 182.959" stroke="#263238" stroke-miterlimit="10" stroke-linecap="round"/>
<path d="M232.127 184.748C232.127 184.748 234.943 185.888 236.499 187.707" stroke="#263238" stroke-miterlimit="10" stroke-linecap="round"/>
<path d="M228.376 186.652C226.87 186.397 225.343 186.288 223.816 186.327C222.279 186.347 220.754 186.606 219.296 187.097" stroke="#263238" stroke-miterlimit="10" stroke-linecap="round"/>
<path d="M229.089 188.51C229.089 188.51 232.201 190.54 232.144 193.07" stroke="#263238" stroke-miterlimit="10" stroke-linecap="round"/>
<path d="M256.916 209.253C255.064 208.158 253.017 208.113 252.014 206.973C251.011 205.833 252.977 205.228 254.032 205.667C255.086 206.106 257.532 207.377 257.993 207.634C258.455 207.89 258.136 203.906 257.281 202.401C256.426 200.896 254.072 200.013 252.898 201.261C250.424 203.86 246.565 200.458 246.833 198.411C247.101 196.365 245.197 194.199 241.133 195.481C237.069 196.764 238.579 197.471 238.579 197.471C238.579 197.471 241.469 199.238 243.322 200.321C245.174 201.404 248.241 202.356 247.579 203.171C246.918 203.986 245.146 203.484 243.664 202.293C242.182 201.102 237.918 198.274 237.485 199.329C237.052 200.383 235.518 203.285 235.518 203.285C237.407 203.572 239.275 203.983 241.11 204.516C243.589 205.297 244.097 206.659 242.159 206.762C240.221 206.864 236.71 205.411 235.615 207.263C234.521 209.116 235.267 213.87 235.267 213.87C235.267 213.87 238.813 211.47 240.62 211.476C242.427 211.481 241.275 212.485 239.252 213.79C238.375 214.326 237.528 214.91 236.715 215.54L238.556 220.254C239.962 220.064 241.379 219.961 242.797 219.946L243.994 220.031C243.994 220.031 243.994 215.089 245.413 213.625C246.833 212.16 247.084 215.551 247.386 216.412C247.688 217.273 246.781 219.866 246.781 219.866C246.781 219.866 250.293 217.945 251.433 217.181L252.573 216.418C252.573 216.418 251.262 212.832 250.367 211.801C249.472 210.769 248.258 210.928 249.289 210.039C250.321 209.15 251.849 209.617 252.709 210.883C253.442 212.081 254.078 213.335 254.613 214.633C254.613 214.633 255.924 214.85 257.629 212.923C259.333 210.997 258.78 210.33 256.916 209.253ZM240.819 214.696C239.457 214.018 242.689 212.656 242.689 212.656C243.88 212.485 242.182 215.374 240.819 214.696ZM243.099 208.346C242.529 208.056 244.239 207.474 244.239 207.474C246.81 207.959 243.692 208.62 243.111 208.346H243.099Z" fill="#BF9B6F"/>
<path d="M240.785 218.162C240.432 218.532 240.067 218.897 239.691 219.251" stroke="#263238" stroke-miterlimit="10" stroke-linecap="round"/>
<path d="M247.762 207.577C246.2 210.914 244.231 214.046 241.902 216.902" stroke="#263238" stroke-miterlimit="10" stroke-linecap="round"/>
<path d="M248.395 206.22C249.21 204.396 249.626 203.194 249.626 203.194C250.567 203.605 251.61 203.72 252.618 203.524C253.487 203.294 254.397 203.275 255.274 203.467" stroke="#263238" stroke-miterlimit="10" stroke-linecap="round"/>
<path d="M241.361 202.487C241.361 202.487 247.3 205.439 246.913 205.776" stroke="#263238" stroke-miterlimit="10" stroke-linecap="round"/>
<path d="M250.042 207.56C250.042 207.56 252.852 208.7 254.414 210.524" stroke="#263238" stroke-miterlimit="10" stroke-linecap="round"/>
<path d="M246.291 209.464C244.785 209.212 243.258 209.105 241.731 209.144C240.196 209.16 238.672 209.418 237.217 209.908" stroke="#263238" stroke-miterlimit="10" stroke-linecap="round"/>
<path d="M247.004 211.328C247.004 211.328 250.116 213.351 250.059 215.888" stroke="#263238" stroke-miterlimit="10" stroke-linecap="round"/>
<path d="M231.454 151.54C231.454 151.54 229.129 153.25 227.647 151.54C226.165 149.83 228.279 146.467 226.17 145.196C224.061 143.925 220.675 146.256 220.675 146.256C220.675 146.256 223.44 146.889 223.44 148.371C223.44 149.853 222.169 150.48 221.958 149.847C221.747 149.215 220.248 146.045 218.156 147.522C217.546 147.933 217.025 148.464 216.625 149.082C216.225 149.7 215.955 150.393 215.83 151.118C215.83 151.118 220.903 150.269 221.325 152.173C221.747 154.077 219.211 151.962 217.096 151.962C214.981 151.962 213.106 152.384 213.294 153.672C213.408 154.796 213.408 155.928 213.294 157.052C214.378 156.025 215.793 155.419 217.284 155.342C219.61 155.342 219.61 156.824 217.501 156.824C215.392 156.824 213.693 158.933 213.693 158.933C213.693 158.933 215.808 162.108 218.344 163.584C220.881 165.061 221.724 164.428 221.935 163.163C222.146 161.897 221.302 158.722 222.779 158.722C224.255 158.722 220.67 164.422 222.568 164.645C224.466 164.867 225.954 164.217 226.375 162.935L226.797 161.663C226.797 161.663 225.954 158.494 226.165 157.229C226.375 155.963 226.797 157.229 227.219 158.705C227.641 160.181 228.063 163.778 228.701 163.567C229.339 163.356 231.232 160.609 231.659 159.577C232.087 158.546 228.701 155.559 228.701 154.926C228.701 154.293 231.232 155.348 231.659 155.981C231.965 156.46 232.247 156.955 232.503 157.463C232.503 157.463 233.979 156.408 233.768 153.444C233.557 150.48 231.454 151.54 231.454 151.54Z" fill="#BF9B6F"/>
<path d="M219.615 159.207C221.074 157.166 223.24 154.39 225.11 153.016" stroke="#263238" stroke-miterlimit="10" stroke-linecap="round"/>
<path d="M217.928 161.68C217.928 161.68 218.299 161.11 218.903 160.216" stroke="#263238" stroke-miterlimit="10" stroke-linecap="round"/>
<path d="M226.17 153.438C226.17 153.438 228.707 156.613 229.339 159.993" stroke="#263238" stroke-miterlimit="10" stroke-linecap="round"/>
<path d="M223.634 155.553C223.634 155.553 224.266 155.131 224.266 159.361" stroke="#263238" stroke-miterlimit="10" stroke-linecap="round"/>
<path d="M225.11 151.54C225.11 151.54 226.381 150.269 225.532 147.943" stroke="#263238" stroke-miterlimit="10" stroke-linecap="round"/>
<path d="M223.423 153.655L222.363 151.962" stroke="#263238" stroke-miterlimit="10" stroke-linecap="round"/>
<path d="M221.519 155.553C221.519 155.553 218.35 153.438 216.446 153.438" stroke="#263238" stroke-miterlimit="10" stroke-linecap="round"/>
<path d="M252.795 226.113H236.459V249.631H252.795V226.113Z" fill="#263238" stroke="#263238" stroke-width="2" stroke-miterlimit="10" stroke-linecap="round"/>
<path d="M197.391 262.77C216.751 262.77 232.446 260.728 232.446 258.21C232.446 255.692 216.751 253.65 197.391 253.65C178.031 253.65 162.336 255.692 162.336 258.21C162.336 260.728 178.031 262.77 197.391 262.77Z" fill="#263238" stroke="#263238" stroke-width="2" stroke-miterlimit="10" stroke-linecap="round"/>
<path d="M182.907 127.161C181.43 128.74 180.32 130.626 179.658 132.685C178.684 135.934 172.351 151.688 172.676 153.313C173.001 154.937 177.709 157.212 179.333 156.562C180.958 155.912 183.557 148.582 183.557 148.582L182.907 127.161Z" fill="#BF9B6F" stroke="#263238" stroke-linecap="round" stroke-linejoin="round"/>
<path d="M201.66 122.139C201.66 122.139 201.66 122.139 201.632 122.111C201.604 122.083 201.649 122.128 201.66 122.139Z" fill="#263238" stroke="#263238" stroke-linecap="round" stroke-linejoin="round"/>
<path d="M201.313 121.763L201.363 121.82" stroke="#263238" stroke-linecap="round" stroke-linejoin="round"/>
<path d="M214.531 167.643C213.142 164.395 211.56 161.234 209.794 158.175C209.794 158.175 212.445 139.798 212.445 135.82C212.445 131.841 209.794 129.185 207.885 126.916C206.494 125.246 203.986 123.986 202.373 122.761C201.575 125.548 198.52 134.976 193.675 134.491C187.975 133.921 191.395 124.072 191.395 124.072C190.637 126.158 183.249 124.642 181.921 128.809C180.593 132.975 182.679 149.836 182.873 154.761C183.067 159.685 183.249 171.815 182.303 177.874C181.357 183.933 178.701 213.493 179.453 220.499C180.206 227.504 185.33 243.048 185.518 245.51C185.706 247.973 184.19 248.537 184.572 249.865C184.799 250.667 184.925 251.494 184.948 252.328C184.948 252.328 183.626 253.274 181.351 255.178C179.077 257.081 176.615 258.204 179.453 258.962C182.292 259.72 187.792 258.774 187.792 258.774C187.792 258.774 183.432 261.425 185.512 262.194C187.593 262.964 200.48 262.388 202.749 262.194C205.018 262 205.781 261.054 205.599 258.204C205.559 256.857 205.368 255.519 205.029 254.214C205.029 254.214 206.357 250.618 206.357 248.913V243.988C206.357 242.09 206.357 233.945 207.873 229.778C209.389 225.612 209.196 221.798 209.196 218.789C209.103 216.188 208.85 213.595 208.438 211.025C208.438 211.025 215.289 195.875 217.17 187.53C219.051 179.185 216.993 173.331 214.531 167.643ZM196.342 236.225C196.342 236.225 195.202 227.892 193.88 224.101C192.557 220.311 191.987 218.036 191.987 217.09C191.987 216.144 195.977 199.283 195.977 199.283C195.977 199.283 195.031 217.66 195.789 223.913C196.249 228 196.434 232.113 196.342 236.225Z" fill="#263238" stroke="#263238" stroke-linecap="round" stroke-linejoin="round"/>
<path d="M203.541 177.686C210.586 176.808 214.474 174.904 216.651 173.126C216.055 171.263 215.356 169.435 214.559 167.648C213.17 164.401 211.589 161.24 209.823 158.181C209.823 158.181 212.473 139.804 212.473 135.825C212.473 131.847 209.823 129.19 207.913 126.922C206.522 125.252 204.014 123.992 202.401 122.767C201.603 125.554 198.548 134.982 193.703 134.497C188.003 133.927 191.423 124.078 191.423 124.078C190.665 126.164 183.278 124.648 181.95 128.814C180.622 132.981 182.708 149.842 182.902 154.766C183.067 159.184 183.238 169.381 182.588 175.816C186.664 177.207 193.971 178.883 203.541 177.686Z" fill="#BF9B6F" stroke="#263238" stroke-linecap="round" stroke-linejoin="round"/>
<path d="M187.262 148.314C187.262 148.314 192.962 154.863 195.926 156.556" stroke="#263238" stroke-linecap="round" stroke-linejoin="round"/>
<path d="M194.587 157.941C195.02 158.186 195.47 158.431 195.926 158.665" stroke="#263238" stroke-linecap="round" stroke-linejoin="round"/>
<path d="M186.202 151.694C188.279 153.672 190.547 155.438 192.973 156.967" stroke="#263238" stroke-linecap="round" stroke-linejoin="round"/>
<path d="M184.367 118.782C184.367 118.782 182.657 124.67 183.227 126.683C183.797 128.695 184.845 131.813 184.845 131.813C184.845 131.813 171.906 150.668 171.735 152.942C171.564 155.217 174.089 156.836 176.358 156.984C178.627 157.132 180 156.077 180.815 153.53C181.631 150.982 188.368 132.365 188.368 132.365C188.368 132.365 190.648 126.979 191.058 126.027C191.469 125.075 191.72 120.863 191.72 120.863C191.72 120.863 190.671 119.489 190.58 120.623C190.408 121.719 190.12 122.793 189.719 123.827L188.368 122.117C188.368 122.117 188.368 119.837 188.368 119.187C188.368 118.537 188.054 116.565 187.228 116.998C186.401 117.431 185.13 117.038 184.367 118.782Z" fill="white" stroke="#263238" stroke-linecap="round" stroke-linejoin="round"/>
<path d="M185.25 121.758L184.68 124.699C184.68 124.699 187.616 128.005 187.251 130.576" stroke="#263238" stroke-linecap="round" stroke-linejoin="round"/>
<path d="M186.493 97.3618C186.493 97.3618 184.395 95.401 184.007 93.2521C183.62 91.1032 193.196 89.1424 197.494 90.3166C201.791 91.4908 212.314 96.1078 212.741 101.266C213.522 110.848 207.611 115.892 206.876 117.101C204.852 120.447 199.956 119.495 198.862 118.663C197.767 117.83 194.17 111.042 192.409 108.5C190.648 105.957 186.493 97.3618 186.493 97.3618Z" fill="#263238" stroke="#263238" stroke-linecap="round" stroke-linejoin="round"/>
<path d="M192.409 100.286C192.409 100.286 200.036 104.395 205.901 104.783" stroke="#FF2525" stroke-linecap="round" stroke-linejoin="round"/>
<path d="M194.37 104.196C194.37 104.196 198.867 110.648 208.249 110.261" stroke="#FF2525" stroke-linecap="round" stroke-linejoin="round"/>
<path d="M201.079 121.41C200.23 119.882 201.204 117.899 201.415 117.505L198.805 115.909C199.7 115.87 200.59 115.742 201.461 115.528C203.171 115.151 204.311 111.999 202.783 110.603C200.811 108.824 198.998 110.797 198.998 110.797C198.998 110.797 195.966 110.797 194.262 107.006C192.557 103.216 192.552 100.736 190.272 99.596C188.949 98.9386 187.682 98.1762 186.481 97.316C186.481 97.316 184.378 102.161 184.566 105.575C184.754 108.99 181.556 110.574 181.368 111.52C181.18 112.467 183.648 113.23 183.648 113.23C183.648 113.23 183.266 119.86 184.024 120.64C184.783 121.421 191.434 120.64 191.434 120.64C191.434 120.64 192.193 121.969 191.434 124.06C191.434 124.06 188.014 133.91 193.714 134.48C198.559 134.965 201.615 125.537 202.413 122.749L202.481 122.801C201.925 122.436 201.448 121.963 201.079 121.41Z" fill="white" stroke="#263238" stroke-linecap="round" stroke-linejoin="round"/>
<path d="M186.875 109.104C187.189 109.104 187.445 108.596 187.445 107.969C187.445 107.343 187.189 106.835 186.875 106.835C186.56 106.835 186.305 107.343 186.305 107.969C186.305 108.596 186.56 109.104 186.875 109.104Z" fill="#263238"/>
<path d="M185.25 114.792C185.929 114.955 186.637 114.941 187.31 114.754C187.982 114.566 188.595 114.211 189.092 113.721" stroke="#263238" stroke-linecap="round" stroke-linejoin="round"/>
<path d="M185.86 104.88C186.078 104.704 186.336 104.583 186.61 104.525C186.885 104.468 187.169 104.476 187.439 104.55C187.71 104.623 187.96 104.759 188.167 104.947C188.375 105.136 188.536 105.37 188.636 105.632" stroke="#263238" stroke-linecap="round" stroke-linejoin="round"/>
<path d="M186.116 260C189.109 259.43 193.697 257.959 194.45 255.548C195.396 252.516 195.59 252.328 195.59 252.328C193.36 253.219 190.898 253.353 188.585 252.71C188.585 252.71 188.203 250.053 186.498 249.86C185.068 249.7 184.971 251.53 184.976 252.14C184.976 252.259 184.976 252.328 184.976 252.328C184.976 252.328 183.654 253.274 181.38 255.178C179.105 257.081 176.643 258.204 179.482 258.962C182.32 259.721 187.821 258.774 187.821 258.774C187.226 259.144 186.656 259.554 186.116 260Z" fill="white" stroke="#263238" stroke-linecap="round" stroke-linejoin="round"/>
<path d="M205.627 258.21C205.567 257.191 205.449 256.177 205.274 255.172C202.768 255.642 200.211 255.773 197.67 255.559C197.67 255.559 196.53 249.688 194.638 253.279C192.745 256.87 187.798 258.774 187.798 258.774C187.798 258.774 183.437 261.425 185.518 262.194C187.598 262.964 200.486 262.388 202.755 262.194C205.023 262 205.816 261.06 205.627 258.21Z" fill="white" stroke="#263238" stroke-linecap="round" stroke-linejoin="round"/>
<path d="M204.351 133.984C204.351 133.984 198.827 153.638 198.651 155.428C198.474 157.217 200.6 162.575 204.009 161.76C207.417 160.945 209.532 157.377 210.182 153.78C210.832 150.184 214.742 138.02 214.742 134.936C214.742 131.852 206.46 126.323 206.46 126.323" fill="#BF9B6F"/>
<path d="M204.351 133.984C204.351 133.984 198.827 153.638 198.651 155.428C198.474 157.217 200.6 162.575 204.009 161.76C207.417 160.945 209.532 157.377 210.182 153.78C210.832 150.184 214.742 138.02 214.742 134.936C214.742 131.852 206.46 126.323 206.46 126.323" stroke="#263238" stroke-linecap="round" stroke-linejoin="round"/>
<path d="M197.448 134.355C197.448 134.355 200.23 127.993 200.355 127.024C200.48 126.055 199.095 122.772 198.115 121.501C197.134 120.23 191.491 119.506 192.033 120.39C192.574 121.273 194.746 122.214 194.746 122.214C194.746 122.214 192.985 130.832 193.304 132.183C193.623 133.534 194.444 136.099 194.444 136.099C194.444 136.099 197.864 157.987 198.018 159.321C198.172 160.654 200.771 162.131 202.766 161.891C204.761 161.652 205.975 159.845 206.186 156.761C206.397 153.678 199.785 141.525 199.346 139.832C198.907 138.139 197.448 134.355 197.448 134.355Z" fill="white" stroke="#263238" stroke-linecap="round" stroke-linejoin="round"/>
<path d="M198.115 121.501C198.225 121.649 198.297 121.821 198.326 122.002C198.354 122.184 198.339 122.37 198.28 122.544C198.121 123.274 197.551 125.622 197.551 125.622" stroke="#263238" stroke-linecap="round" stroke-linejoin="round"/>
<path d="M199.415 124.488L198.685 126.916" stroke="#263238" stroke-linecap="round" stroke-linejoin="round"/>
<path d="M117.061 137.906L120.076 141.844L145.817 144.398L144.438 147.607L113.818 149.961L108.71 139.297L117.061 137.906Z" fill="white" stroke="#263238" stroke-linecap="round" stroke-linejoin="round"/>
<path d="M113.35 122.601L119.843 138.601L112.421 141.149L106.163 128.165L113.35 122.601Z" fill="#BF9B6F" stroke="#263238" stroke-linecap="round" stroke-linejoin="round"/>
<path d="M115.892 116.006C115.892 116.006 114.086 126.198 113.042 130.165C111.999 134.132 106.356 141.605 103.523 144.21C100.691 146.815 94.9164 154.06 94.9164 154.06V111.925L103.073 105.923L115.892 116.006Z" fill="#BF9B6F" stroke="#263238" stroke-linecap="round" stroke-linejoin="round"/>
<path d="M105.815 90.972C105.815 90.972 106.835 95.0475 107.285 95.7315C107.736 96.4155 107.741 100.149 106.145 102.184C104.549 104.219 102.629 106.265 102.629 106.265L112.37 113.287C112.37 113.287 115.22 108.642 116.451 107.394C117.378 106.518 118.403 105.753 119.506 105.114C119.506 105.114 116.086 102.167 115.881 98.4333C115.676 94.6998 115.773 90.0486 115.773 90.0486L105.815 90.972Z" fill="white" stroke="#263238" stroke-linecap="round" stroke-linejoin="round"/>
<path d="M113.744 101.414L115.716 108.123L119.518 105.131L113.744 101.414Z" fill="#263238" stroke="#263238" stroke-linecap="round" stroke-linejoin="round"/>
<path d="M128.512 90.4077C128.512 90.4077 128.25 92.7846 128.25 93.48C128.25 94.1754 130.633 95.76 130.633 96.7632C130.633 97.7664 128.028 99.2598 128.028 99.2598C128.028 99.2598 126.443 105.376 125.423 106.504C124.403 107.633 117.038 105.712 115.226 104.014C113.413 102.315 112.056 95.9709 111.942 94.05C111.828 92.1291 111.942 89.7408 111.942 89.7408L127.8 89.1708L128.512 90.4077Z" fill="white" stroke="#263238" stroke-linecap="round" stroke-linejoin="round"/>
<path d="M116.69 90.2311C116.553 90.5154 116.481 90.8272 116.481 91.1431C116.481 91.459 116.553 91.7708 116.69 92.0551C117.115 92.634 117.685 93.0902 118.343 93.3775L116.36 93.5428L116.195 94.204C115.494 93.9378 114.863 93.5172 114.348 92.9735C113.833 92.4297 113.447 91.7768 113.219 91.0633C112.393 88.5781 111.731 92.0551 111.731 92.0551L111.897 95.1958C111.088 96.1774 110.072 96.9677 108.921 97.51L107.263 98.1712C107.263 98.1712 106.123 90.5617 106.271 88.9087C106.419 87.2557 111.731 86.5945 112.889 86.9251C114.046 87.2557 116.69 88.4128 116.69 90.2311Z" fill="#263238" stroke="#263238" stroke-linecap="round" stroke-linejoin="round"/>
<path d="M125.634 93.3489C125.634 94.0386 125.406 94.5972 125.126 94.5972C124.847 94.5972 124.619 94.0272 124.619 93.3489C124.619 92.6706 124.847 92.1063 125.126 92.1063C125.406 92.1063 125.634 92.6649 125.634 93.3489Z" fill="#263238"/>
<path d="M122.807 98.6727C123.199 99.2179 123.735 99.6442 124.355 99.9046C124.974 100.165 125.653 100.25 126.318 100.149" stroke="#263238" stroke-linecap="round" stroke-linejoin="round"/>
<path d="M105.581 91.6845C105.581 91.6845 117.409 91.3197 121.963 90.9549C126.517 90.5901 128.512 90.3849 128.512 90.3849C128.512 90.3849 127.418 81.4701 127.059 79.0989C126.7 76.7277 117.226 73.4616 113.042 74.1855C108.859 74.9094 104.492 78.9165 104.122 81.8292C103.751 84.7419 105.581 91.6845 105.581 91.6845Z" fill="#BF9B6F" stroke="#263238" stroke-linecap="round" stroke-linejoin="round"/>
<path d="M113.949 93.4801C113.949 93.4801 112.13 89.1139 110.495 90.0202C108.859 90.9265 109.035 94.3921 110.13 95.4808C111.224 96.5695 113.59 95.8456 113.59 95.8456" fill="white"/>
<path d="M113.949 93.4801C113.949 93.4801 112.13 89.1139 110.495 90.0202C108.859 90.9265 109.035 94.3921 110.13 95.4808C111.224 96.5695 113.59 95.8456 113.59 95.8456" stroke="#263238" stroke-linecap="round" stroke-linejoin="round"/>
<path d="M121.051 91.1373C121.051 91.1373 126.511 88.2246 128.695 88.2246C130.878 88.2246 139.433 88.0422 138.339 90.2253C137.245 92.4084 130.148 91.5021 127.059 91.5021C125.051 91.4905 123.045 91.3687 121.051 91.1373Z" fill="white" stroke="#263238" stroke-linecap="round" stroke-linejoin="round"/>
<path d="M103.324 102.526L118.161 112.381L117.141 118.041L100.719 106.151L103.324 102.526Z" fill="white" stroke="#263238" stroke-linecap="round" stroke-linejoin="round"/>
<path d="M151.118 123.365C151.118 123.365 152.709 118.155 155.65 117.705C158.591 117.255 163.579 117.927 163.693 119.415C163.807 120.903 161.544 123.154 161.544 123.154L151.118 123.365Z" fill="#BF9B6F" stroke="#263238" stroke-linecap="round" stroke-linejoin="round"/>
<path d="M162.45 118.286C159.988 118.452 157.89 122.921 157.73 123.223L161.572 123.143C161.572 123.143 163.852 120.863 163.721 119.404C163.658 118.953 163.168 118.56 162.45 118.286Z" fill="#263238" stroke="#263238" stroke-linecap="round" stroke-linejoin="round"/>
<path d="M148.2 117.021C148.2 117.021 142.198 115.664 140.836 117.927C139.473 120.19 145.253 123.251 145.253 123.251H153.501L148.2 117.021Z" fill="#BF9B6F" stroke="#263238" stroke-linecap="round" stroke-linejoin="round"/>
<path d="M154.407 123.365C154.407 123.365 151.232 116.006 148.2 117.021C145.168 118.036 151.05 123.251 151.711 123.251L154.407 123.365Z" fill="#263238" stroke="#263238" stroke-linecap="round" stroke-linejoin="round"/>
<path d="M165.169 123.251H136.737V147.601H165.169V123.251Z" fill="white" stroke="#263238" stroke-linecap="round" stroke-linejoin="round"/>
<path d="M165.163 123.251H156.556V147.601H165.163V123.251Z" fill="white" stroke="#263238" stroke-linecap="round" stroke-linejoin="round"/>
<path d="M150.104 123.251H144.438V147.601H150.104V123.251Z" fill="#BF9B6F" stroke="#263238" stroke-linecap="round" stroke-linejoin="round"/>
<path d="M158.825 123.479V135.375L161.316 131.75L163.47 134.691V123.365L158.825 123.479Z" fill="#BF9B6F" stroke="#263238" stroke-linecap="round" stroke-linejoin="round"/>
<path d="M115.214 139.564L118.275 144.546L140.585 145.795C140.585 145.795 145.344 141.941 145.715 141.941C146.085 141.941 148.77 141.827 150.583 141.941C152.395 142.055 153.529 141.035 153.643 141.605C153.664 142.019 153.539 142.427 153.29 142.758C153.041 143.089 152.684 143.322 152.281 143.418C150.978 143.723 149.693 144.103 148.434 144.558L150.018 146.034C150.018 146.034 156.02 147.174 155.678 147.744C155.336 148.314 151.261 151.255 151.261 151.255C151.261 151.255 147.299 151.477 145.829 150.799C144.609 150.278 143.36 149.825 142.09 149.443C142.09 149.443 113.316 153.974 111.31 154.424C109.303 154.875 107.684 152.84 107.228 151.933C106.772 151.027 104.624 143.212 104.624 143.212L115.214 139.564Z" fill="white" stroke="#263238" stroke-linecap="round" stroke-linejoin="round"/>
<path d="M107.399 112.29C107.399 112.29 104.116 109.685 101.397 111.612C98.6785 113.538 96.4156 117.95 97.0939 121.239C97.7722 124.528 102.754 145.139 102.754 145.139L117.004 140.38L110.21 116.252" fill="#BF9B6F"/>
<path d="M107.399 112.29C107.399 112.29 104.116 109.685 101.397 111.612C98.6785 113.538 96.4156 117.95 97.0939 121.239C97.7722 124.528 102.754 145.139 102.754 145.139L117.004 140.38L110.21 116.252" stroke="#263238" stroke-linecap="round" stroke-linejoin="round"/>
<path d="M95.8171 244.604L36.1039 236.459C34.8499 236.288 33.8239 234.606 33.8239 232.708V54.1159C33.8239 52.2178 34.8385 50.5363 36.1039 50.3653L95.8171 42.2199C97.3048 42.0147 98.5189 43.5366 98.5189 45.64V241.207C98.5189 243.288 97.3048 244.809 95.8171 244.604Z" fill="#263238" stroke="#263238" stroke-linecap="round" stroke-linejoin="round"/>
<path d="M93.4002 244.274L34.0575 236.18C32.8092 236.009 31.7775 234.333 31.7775 232.44V54.3837C31.7775 52.4856 32.7807 50.8155 34.0575 50.6445L93.4002 42.5505C94.8765 42.3453 96.0792 43.8672 96.0792 45.9363V240.876C96.0792 242.957 94.8765 244.479 93.4002 244.274Z" fill="white" stroke="#263238" stroke-linecap="round" stroke-linejoin="round"/>
<path d="M66.9522 56.3103L58.9722 57.285C58.5219 57.342 58.1628 56.8518 58.1628 56.1963C58.1628 55.5408 58.5219 54.9594 58.9722 54.9081L66.9522 53.8992C67.4082 53.8422 67.7787 54.3381 67.7787 55.005C67.7787 55.6662 67.4082 56.2533 66.9522 56.3103Z" fill="#263238"/>
<path d="M64.2846 229.602C64.2846 228.57 63.7146 227.669 63.0021 227.584C62.2896 227.498 61.731 228.268 61.731 229.294C61.731 230.32 62.301 231.22 63.0021 231.312C63.7032 231.403 64.2846 230.633 64.2846 229.602Z" fill="#263238"/>
<path d="M98.0458 75.7017L96.655 75.8328V63.4353L98.0458 63.2871V75.7017Z" fill="white" stroke="#263238" stroke-linecap="round" stroke-linejoin="round"/>
<path d="M98.0458 97.4358L96.655 97.5213V85.1295L98.0458 85.0212V97.4358Z" fill="white" stroke="#263238" stroke-linecap="round" stroke-linejoin="round"/>
<path d="M98.0458 111.407L96.655 111.469V99.0717L98.0458 98.9919V111.407Z" fill="white" stroke="#263238" stroke-linecap="round" stroke-linejoin="round"/>
<path d="M87.9339 227.892L38.76 222.226C36.9873 222.021 35.5509 219.684 35.5509 217.005V65.1339C35.5509 62.4549 36.9873 60.1065 38.76 59.8899L48.0681 58.7499L49.5045 60.3516C49.7185 60.6158 49.9943 60.8231 50.3074 60.9553C50.6206 61.0875 50.9615 61.1406 51.3 61.1097L74.7612 58.3395C75.1665 58.2692 75.5529 58.116 75.8962 57.8894C76.2395 57.6629 76.5323 57.3678 76.7562 57.0228L78.1641 55.0848L87.951 53.8878C90.003 53.637 91.6788 55.7859 91.6788 58.6872V223.064C91.6617 225.965 89.9859 228.126 87.9339 227.892Z" fill="white" stroke="#263238" stroke-linecap="round" stroke-linejoin="round"/>
<path d="M35.5338 189.297V217.005C35.5338 219.684 36.9702 222.021 38.7429 222.226L87.9339 227.892C89.9859 228.125 91.6617 225.965 91.6617 223.064V192.574L35.5338 189.297Z" fill="#BF9B6F" stroke="#263238" stroke-linecap="round" stroke-linejoin="round"/>
<path d="M87.9339 53.8878L78.147 55.0848L76.7391 57.0228C76.5152 57.3678 76.2224 57.6629 75.8791 57.8894C75.5358 58.116 75.1494 58.2692 74.7441 58.3395L51.3 61.1097C50.962 61.1412 50.6214 61.0891 50.3082 60.9579C49.9951 60.8267 49.7191 60.6204 49.5045 60.3573L48.0681 58.7556L38.76 59.8956C36.9873 60.1122 35.5509 62.4606 35.5509 65.1396V82.8552L91.6617 79.23V58.71C91.6617 55.7859 89.9859 53.637 87.9339 53.8878Z" fill="#BF9B6F" stroke="#263238" stroke-linecap="round" stroke-linejoin="round"/>
<path d="M91.6617 67.5394V58.71C91.6617 55.8087 89.9859 53.6598 87.9339 53.9106L78.147 55.1076L76.7391 57.0456C76.5152 57.3907 76.2224 57.6857 75.8791 57.9123C75.5358 58.1388 75.1494 58.2921 74.7441 58.3623L51.3 61.1097C50.962 61.1413 50.6214 61.0891 50.3082 60.9579C49.9951 60.8267 49.7191 60.6204 49.5045 60.3573L48.0681 58.7557L38.76 59.8957C36.9873 60.1123 35.5509 62.4607 35.5509 65.1397V72.3331L91.6617 67.5394Z" fill="#263238" stroke="#263238" stroke-linecap="round" stroke-linejoin="round"/>
<path d="M64.4271 77.4061L39.2559 79.5721V75.2401L64.4271 73.0684V77.4061Z" fill="white"/>
<path d="M82.6671 71.4267L75.5991 71.9055L77.2179 75.5991L82.5075 75.1944L83.9325 70.4064L86.2752 70.224" stroke="white" stroke-linecap="round" stroke-linejoin="round"/>
<path d="M78.5802 76.95C78.5802 77.0627 78.5468 77.1729 78.4842 77.2667C78.4216 77.3604 78.3325 77.4335 78.2284 77.4766C78.1242 77.5198 78.0096 77.531 77.899 77.5091C77.7885 77.4871 77.6869 77.4328 77.6072 77.3531C77.5275 77.2733 77.4732 77.1718 77.4512 77.0612C77.4292 76.9506 77.4405 76.836 77.4836 76.7319C77.5268 76.6277 77.5998 76.5387 77.6936 76.4761C77.7873 76.4134 77.8975 76.38 78.0102 76.38C78.1614 76.38 78.3064 76.4401 78.4133 76.547C78.5202 76.6538 78.5802 76.7988 78.5802 76.95Z" fill="white" stroke="white" stroke-linecap="round" stroke-linejoin="round"/>
<path d="M82.5075 76.6365C82.5075 76.7493 82.4741 76.8595 82.4114 76.9532C82.3488 77.0469 82.2598 77.12 82.1556 77.1631C82.0515 77.2063 81.9369 77.2176 81.8263 77.1956C81.7157 77.1736 81.6142 77.1193 81.5344 77.0396C81.4547 76.9599 81.4004 76.8583 81.3784 76.7477C81.3565 76.6372 81.3677 76.5226 81.4109 76.4184C81.454 76.3142 81.5271 76.2252 81.6208 76.1626C81.7146 76.1 81.8248 76.0665 81.9375 76.0665C82.0887 76.0665 82.2336 76.1266 82.3405 76.2335C82.4474 76.3404 82.5075 76.4854 82.5075 76.6365Z" fill="white" stroke="white" stroke-linecap="round" stroke-linejoin="round"/>
<path d="M61.0471 111.11C61.0471 111.11 62.8996 105.25 66.3652 104.618C69.8308 103.985 75.8443 104.527 75.9811 106.191C76.1179 107.855 73.3819 110.506 73.3819 110.506L61.0471 111.11Z" fill="#BF9B6F" stroke="#263238" stroke-linecap="round" stroke-linejoin="round"/>
<path d="M74.442 104.983C71.4894 105.273 68.9643 110.386 68.7933 110.728L73.3818 110.506C73.3818 110.506 76.1178 107.855 75.981 106.191C75.9411 105.684 75.3426 105.279 74.442 104.983Z" fill="#263238" stroke="#263238" stroke-linecap="round" stroke-linejoin="round"/>
<path d="M57.6328 104.185C57.6328 104.185 50.7928 102.953 49.2367 105.496C47.6806 108.038 54.2527 111.196 54.2527 111.196L63.8287 110.922L57.6328 104.185Z" fill="#BF9B6F" stroke="#263238" stroke-linecap="round" stroke-linejoin="round"/>
<path d="M64.8945 111.002C64.8945 111.002 61.1838 102.919 57.6327 104.162C54.0816 105.404 60.9159 110.968 61.7082 110.945L64.8945 111.002Z" fill="#263238" stroke="#263238" stroke-linecap="round" stroke-linejoin="round"/>
<path d="M77.7708 138.196L44.6652 137.94V111.452L77.7708 110.506V138.196Z" fill="white" stroke="#263238" stroke-linecap="round" stroke-linejoin="round"/>
<path d="M77.7708 138.196L67.4367 138.117V110.802L77.7708 110.506V138.196Z" fill="white" stroke="#263238" stroke-linecap="round" stroke-linejoin="round"/>
<path d="M53.3463 138.008L59.8614 138.06V111.019L53.3463 111.207V138.008Z" fill="#BF9B6F" stroke="#263238" stroke-linecap="round" stroke-linejoin="round"/>
<path d="M70.1271 110.979V124.368L73.1082 120.242L75.7074 123.536V110.694L70.1271 110.979Z" fill="#BF9B6F" stroke="#263238" stroke-linecap="round" stroke-linejoin="round"/>
<path d="M42.8298 168.321L81.8463 170.27C84.3771 170.396 86.4405 168.595 86.4405 166.24V156.248C86.4405 153.894 84.3771 151.933 81.8463 151.871L42.8298 150.913C42.305 150.89 41.781 150.973 41.2892 151.158C40.7974 151.342 40.348 151.624 39.9679 151.987C39.5878 152.349 39.2849 152.785 39.0773 153.268C38.8697 153.75 38.7618 154.27 38.76 154.795V164.16C38.7862 165.24 39.2207 166.269 39.9759 167.041C40.7311 167.814 41.7509 168.271 42.8298 168.321Z" fill="#263238" stroke="#263238" stroke-linecap="round" stroke-linejoin="round"/>
<path d="M50.0233 157.725V158.335H49.2538V157.685C49.2538 157.052 48.9972 156.659 48.4045 156.636C47.8117 156.613 47.5552 156.995 47.5552 157.628V161.31C47.5552 161.943 47.8231 162.336 48.4045 162.359C48.9858 162.382 49.2538 162.011 49.2538 161.373V159.959L48.5071 159.931V159.224L50.0233 159.281V161.367C50.0233 162.439 49.5045 163.123 48.3816 163.077C47.2587 163.031 46.7401 162.325 46.7401 161.259V157.616C46.7401 156.545 47.2588 155.861 48.3646 155.906C49.4704 155.952 50.0233 156.653 50.0233 157.725Z" fill="white"/>
<path d="M51.6135 156.066V163.162L50.7984 163.128V156.037L51.6135 156.066Z" fill="white"/>
<path d="M54.9709 159.492V160.216L53.2609 160.153V163.231L52.4401 163.197V156.095L55.3699 156.186V156.91L53.2552 156.841V159.435L54.9709 159.492Z" fill="white"/>
<path d="M57.1197 163.396V156.967L55.746 156.921V156.18L59.3142 156.294V157.024L57.9348 156.978V163.413L57.1197 163.396Z" fill="white"/>
<path d="M64.8318 158.221V158.42L64.0281 158.392V158.152C64.0281 157.502 63.7659 157.109 63.1617 157.092C62.5575 157.075 62.2953 157.445 62.2953 158.084C62.2953 159.697 64.8432 159.948 64.8432 161.983C64.8432 163.077 64.2732 163.767 63.1332 163.721C61.9932 163.676 61.4232 162.94 61.4232 161.846V161.435L62.2098 161.47V161.92C62.2098 162.57 62.4891 162.963 63.0933 162.986C63.6975 163.009 63.9825 162.638 63.9825 161.988C63.9825 160.381 61.4517 160.13 61.4517 158.107C61.4517 156.995 62.0217 156.323 63.1275 156.357C64.2333 156.391 64.8318 157.126 64.8318 158.221Z" fill="white"/>
<path d="M68.3088 159.817V160.541L66.4335 160.472V163.049L68.7135 163.145V163.881L65.5614 163.75V156.511L68.7135 156.608V157.349L66.4335 157.269V159.748L68.3088 159.817Z" fill="white"/>
<path d="M70.2924 163.949L69.5229 163.915V156.636L70.6116 156.67L72.4071 162.011V156.75H73.1767V164.069L72.276 164.029L70.2924 158.055V163.949Z" fill="white"/>
<path d="M75.2002 164.16V157.559L73.7581 157.508V156.75L77.5144 156.87V157.616L76.0609 157.571V164.171L75.2002 164.16Z" fill="white"/>
<path d="M66.861 262.77C86.2214 262.77 101.916 260.728 101.916 258.21C101.916 255.691 86.2214 253.65 66.861 253.65C47.5007 253.65 31.806 255.691 31.806 258.21C31.806 260.728 47.5007 262.77 66.861 262.77Z" fill="#263238" stroke="#263238" stroke-width="2" stroke-miterlimit="10" stroke-linecap="round"/>
</svg>
